# Blender v2.78 (sub 0) OBJ File: ''
# www.blender.org
mtllib weirdo.mtl
o Icosphere
v -0.000000 1.000000 -0.000000
v 0.750701 -0.010945 -0.041499
v 0.251039 0.447220 -0.858472
v -0.738884 0.447216 -0.504032
v -0.707687 0.447220 0.546968
v 0.301511 0.447220 0.842072
v 0.707687 -0.447220 -0.546968
v -0.301511 -0.447220 -0.842072
v -0.894031 -0.447220 0.026529
v -0.251039 -0.447220 0.858472
v 0.738884 -0.447216 0.504032
v 0.000000 -1.000000 0.000000
v -0.157535 1.385207 -0.527382
v 0.525494 0.850654 -0.015593
v 0.673055 0.525738 -0.520190
v 0.702719 0.525736 0.479362
v 0.062691 1.358814 0.537133
v -0.434305 0.850652 -0.296262
v -0.286751 0.525736 -0.800859
v -0.415965 0.850654 0.321497
v -0.850273 0.525736 0.025234
v -0.238744 0.525738 0.816457
v 0.959804 0.000000 0.280671
v 0.611531 0.000000 0.791221
v 0.563526 0.000000 -0.826098
v 0.941471 0.000000 -0.337095
v -0.611531 -0.000000 -0.791221
v -0.812626 1.665375 -1.619288
v -0.941471 -0.000000 0.337095
v -0.959804 -0.000000 -0.280671
v -0.850375 1.616378 1.545745
v -0.563526 0.000000 0.826098
v 0.850273 -0.525736 -0.025234
v 0.238744 -0.525738 -0.816457
v -0.702719 -0.525736 -0.479362
v -0.673055 -0.525738 0.520190
v 0.286751 -0.525736 0.800859
v 0.415965 -0.850654 -0.321497
v 0.434305 -0.850652 0.296262
v -0.177222 -0.850654 -0.494954
v -0.525494 -0.850654 0.015593
v -0.147556 -0.850654 0.504593
vt 0.0995 0.7038
vt 0.0979 0.6053
vt 0.0004 0.7321
vt 0.1812 0.0614
vt 0.2987 0.1755
vt 0.2158 0.1889
vt 0.9947 0.4431
vt 0.9947 0.3354
vt 0.9080 0.3887
vt 0.0430 0.7845
vt 0.1587 0.7825
vt 0.2003 0.6934
vt 0.9671 0.4438
vt 0.9671 0.5551
vt 0.9080 0.4741
vt 0.6587 0.2510
vt 0.5645 0.2115
vt 0.6576 0.1525
vt 0.4377 0.2497
vt 0.5277 0.2797
vt 0.5087 0.1767
vt 0.4117 0.7427
vt 0.4893 0.7546
vt 0.4669 0.6569
vt 0.5617 0.7452
vt 0.4900 0.6949
vt 0.5617 0.5027
vt 0.9550 0.6279
vt 0.9924 0.6894
vt 0.9924 0.5736
vt 0.7506 0.5729
vt 0.3945 0.1575
vt 0.3569 0.6609
vt 0.1481 0.2619
vt 0.1986 0.5758
vt 0.1018 0.1810
vt 0.7744 0.5736
vt 0.8515 0.6393
vt 0.7531 0.6393
vt 0.5871 0.6345
vt 0.6734 0.5814
vt 0.6429 0.6751
vt 0.3683 0.0682
vt 0.4679 0.0700
vt 0.4208 0.0004
vt 0.3021 0.5790
vt 0.4025 0.5607
vt 0.3207 0.5027
vt 0.0654 0.0860
vt 0.0004 0.1550
vt 0.0030 0.0433
vt 0.8211 0.7330
vt 0.7531 0.8266
vt 0.7226 0.7330
vt 0.8515 0.8267
vt 0.7744 0.8923
vt 0.6429 0.7909
vt 0.6734 0.8845
vt 0.5871 0.8315
vt 0.5633 0.7330
vt 0.5626 0.1007
vt 0.5350 0.0195
vt 0.7506 0.0936
vt 0.6565 0.0541
vt 0.7138 0.0004
vt 0.1061 0.0004
vt 0.9543 0.5736
vt 0.8828 0.9541
vt 0.9543 0.9866
vt 0.4893 0.5722
vt 0.9073 0.0004
vt 0.8037 0.4683
vt 0.7513 0.3982
vt 0.9073 0.4309
vt 0.5633 0.0957
vt 0.5980 0.0016
vt 0.2201 0.0082
vt 0.1672 0.0855
vt 0.8522 0.8605
vt 0.9821 0.0004
vt 0.9080 0.2606
vt 0.9821 0.3347
vt 0.3113 0.7611
vt 0.3021 0.1420
vt 0.3429 0.2487
vt 0.5626 0.5020
vt 0.2820 0.5765
vt 0.2010 0.6511
vt 0.2820 0.9102
vt 0.4900 0.9152
vt 0.5574 0.9909
vt 0.5574 0.7459
vt 0.3014 0.0638
vt 0.1706 0.9996
vt 0.0713 0.8780
vt 0.0004 0.9292
vt 0.1706 0.8639
vt 0.3931 0.8190
vt 0.1022 0.8631
vt 0.2003 0.8377
vt 0.4252 0.3243
vt 0.4728 0.4338
vt 0.4726 0.9880
vt 0.3945 0.8281
vt 0.4726 0.8197
vt 0.3014 0.3402
vt 0.3021 0.8715
vt 0.0037 0.5765
vn 0.2474 0.8161 0.5222
vn 0.9514 0.2539 -0.1740
vn -0.5900 0.5578 0.5837
vn -0.3312 0.9435 0.0098
vn -0.5714 0.7117 -0.4087
vn 0.7057 0.5249 -0.4759
vn 0.5521 0.3304 -0.7655
vn -0.5574 0.3304 -0.7617
vn -0.8966 0.3304 0.2948
vn 0.1245 0.5988 -0.7911
vn -0.0548 0.9985 0.0016
vn 0.8015 0.5417 -0.2532
vn -0.8196 0.1256 -0.5591
vn -0.7850 0.1256 0.6067
vn 0.7562 0.4728 0.4524
vn 0.6920 -0.6617 -0.2887
vn -0.0607 -0.6617 -0.7473
vn -0.7295 -0.6617 -0.1732
vn -0.3901 -0.6617 0.6403
vn 0.4884 -0.6617 0.5689
vn 0.1117 -0.9435 0.3119
vn 0.2046 -0.7947 0.5715
vn -0.0163 -0.6617 0.7496
vn -0.2621 -0.9435 0.2026
vn -0.4803 -0.7947 0.3712
vn -0.7179 -0.6617 0.2161
vn -0.2737 -0.9435 -0.1867
vn -0.5015 -0.7947 -0.3421
vn -0.4274 -0.6617 -0.6160
vn 0.0930 -0.9435 -0.3180
vn 0.1704 -0.7947 -0.5827
vn 0.4538 -0.6617 -0.5969
vn 0.3312 -0.9435 -0.0098
vn 0.6068 -0.7947 -0.0180
vn 0.7079 -0.6617 0.2471
vn 0.5574 -0.3304 0.7617
vn 0.2994 -0.1677 0.9393
vn 0.0582 -0.3002 0.9521
vn -0.5521 -0.3304 0.7655
vn -0.7772 -0.1876 0.6007
vn -0.8800 -0.3304 0.3413
vn -0.8987 -0.3304 -0.2886
vn -0.8114 -0.1876 -0.5535
vn -0.5966 -0.3304 -0.7314
vn -0.0059 -0.3465 -0.9380
vn 0.2962 -0.2001 -0.9339
vn 0.5113 -0.3304 -0.7934
vn 0.8966 -0.3304 -0.2948
vn 0.9818 -0.1876 -0.0291
vn 0.9125 -0.3304 0.2411
vn -0.6447 -0.4035 0.6493
vn -0.4830 0.2832 -0.8286
vn -0.5113 0.3304 0.7934
vn -0.9916 -0.1256 0.0294
vn -0.9818 0.1876 0.0291
vn -0.9125 0.3304 -0.2411
vn -0.6708 -0.3936 -0.6286
vn -0.5133 0.3316 0.7916
vn 0.1729 0.6259 0.7605
vn 0.7850 -0.1256 -0.6067
vn 0.7772 0.1876 -0.6007
vn 0.7057 0.5257 0.4749
vn 0.8196 -0.1256 0.5591
vn 0.8114 0.1876 0.5535
vn 0.5966 0.3304 0.7314
vn 0.0012 0.3175 0.9483
vn -0.7134 0.4408 0.5448
vn -0.4538 0.6617 0.5969
vn -0.6920 0.6617 0.2887
vn -0.6068 0.7947 0.0180
vn -0.7079 0.6617 -0.2471
vn -0.4884 0.6617 -0.5689
vn -0.8660 0.2651 -0.4239
vn -0.0563 0.3104 -0.9489
vn 0.5739 0.3910 0.7195
vn 0.7918 0.6006 0.1108
vn 0.2111 0.8012 -0.5599
vn 0.4958 0.4730 -0.7283
vn 0.7008 0.6753 -0.2299
vn 0.9612 0.2476 0.1217
usemtl Material.001
s off
f 1/1/1 14/2/1 13/3/1
f 2/4/2 14/5/2 16/6/2
f 1/7/3 13/8/3 18/9/3
f 1/1/4 18/10/4 20/11/4
f 1/1/5 20/11/5 17/12/5
f 2/13/6 16/14/6 23/15/6
f 3/16/7 15/17/7 25/18/7
f 4/19/8 19/20/8 27/21/8
f 5/22/9 21/23/9 29/24/9
f 6/25/10 22/26/10 31/27/10
f 2/28/11 23/29/11 26/30/11
f 3/16/12 25/18/12 28/31/12
f 4/19/13 27/21/13 30/32/13
f 5/22/14 29/24/14 32/33/14
f 6/34/15 31/35/15 24/36/15
f 7/37/16 33/38/16 38/39/16
f 8/40/17 34/41/17 40/42/17
f 9/43/18 35/44/18 41/45/18
f 10/46/19 36/47/19 42/48/19
f 11/49/20 37/50/20 39/51/20
f 39/52/21 42/53/21 12/54/21
f 39/52/22 37/55/22 42/53/22
f 37/55/23 10/56/23 42/53/23
f 42/53/24 41/57/24 12/54/24
f 42/53/25 36/58/25 41/57/25
f 36/58/26 9/59/26 41/57/26
f 41/57/27 40/42/27 12/54/27
f 41/57/28 35/60/28 40/42/28
f 35/44/29 8/61/29 40/62/29
f 40/42/30 38/39/30 12/54/30
f 40/42/31 34/41/31 38/39/31
f 34/63/32 7/64/32 38/65/32
f 38/39/33 39/52/33 12/54/33
f 38/39/34 33/38/34 39/52/34
f 33/66/35 11/49/35 39/51/35
f 24/36/36 37/50/36 11/49/36
f 24/36/37 31/35/37 37/50/37
f 31/67/38 10/68/38 37/69/38
f 32/33/39 36/47/39 10/46/39
f 32/33/40 29/24/40 36/47/40
f 29/24/41 9/70/41 36/47/41
f 30/32/42 35/44/42 9/43/42
f 30/32/43 27/21/43 35/44/43
f 27/21/44 8/61/44 35/44/44
f 28/71/45 34/72/45 8/73/45
f 28/71/46 25/74/46 34/72/46
f 25/18/47 7/64/47 34/63/47
f 26/75/48 33/76/48 7/64/48
f 26/77/49 23/78/49 33/66/49
f 23/78/50 11/49/50 33/66/50
f 31/67/51 32/79/51 10/68/51
f 31/80/52 22/81/52 32/82/52
f 22/83/53 5/22/53 32/33/53
f 29/84/54 30/32/54 9/43/54
f 29/84/55 21/85/55 30/32/55
f 21/85/56 4/19/56 30/32/56
f 27/21/57 28/86/57 8/61/57
f 27/87/58 19/88/58 28/89/58
f 19/90/59 3/91/59 28/92/59
f 25/18/60 26/75/60 7/64/60
f 25/18/61 15/17/61 26/75/61
f 15/93/62 2/4/62 26/77/62
f 23/78/63 24/36/63 11/49/63
f 23/78/64 16/6/64 24/36/64
f 16/6/65 6/34/65 24/36/65
f 17/94/66 22/95/66 6/96/66
f 17/94/67 20/97/67 22/95/67
f 20/98/68 5/22/68 22/83/68
f 20/11/69 21/99/69 5/100/69
f 20/11/70 18/10/70 21/99/70
f 18/101/71 4/19/71 21/85/71
f 18/101/72 19/20/72 4/19/72
f 18/101/73 13/102/73 19/20/73
f 13/103/74 3/104/74 19/105/74
f 16/6/75 17/106/75 6/34/75
f 16/6/76 14/5/76 17/106/76
f 14/2/77 1/1/77 17/12/77
f 13/103/78 15/107/78 3/104/78
f 13/3/79 14/2/79 15/108/79
f 14/5/80 2/4/80 15/93/80
